<?xml version="1.0" encoding="UTF-8"?>
<svg id="Layer_2" data-name="Layer 2" xmlns="http://www.w3.org/2000/svg" xmlns:xlink="http://www.w3.org/1999/xlink" viewBox="0 0 330 314.79">
  <defs>
    <style>
      .cls-1, .cls-2, .cls-3 {
        fill: none;
      }

      .cls-4 {
        fill: #fff;
      }

      .cls-2 {
        stroke: url(#linear-gradient);
        stroke-width: 30px;
      }

      .cls-2, .cls-3 {
        stroke-linecap: round;
        stroke-miterlimit: 10;
      }

      .cls-3 {
        stroke: #fff;
        stroke-width: 5px;
      }
    </style>
    <linearGradient id="linear-gradient" x1="0" y1="139.11" x2="330" y2="139.11" gradientUnits="userSpaceOnUse">
      <stop offset="0" stop-color="#fff"/>
      <stop offset="0" stop-color="#1d9bf0"/>
      <stop offset="0" stop-color="#1d9bf0"/>
      <stop offset="0" stop-color="#a6e2ff"/>
      <stop offset=".13" stop-color="#8edaff"/>
      <stop offset=".73" stop-color="#28b7ff"/>
      <stop offset="1" stop-color="#0af"/>
    </linearGradient>
  </defs>
  <g id="Layer_1-2" data-name="Layer 1">
    <g>
      <path class="cls-3" d="m72.38,283c-34.94-27.47-57.38-70.11-57.38-118C15,82.16,82.16,15,165,15s150,67.16,150,150c0,47.89-22.45,90.54-57.39,118"/>
      <path class="cls-2" d="m51.63,263.22c-4.5-5.19-8.64-10.69-12.41-16.46-15.32-23.52-24.22-51.6-24.22-81.76C15,82.16,82.16,15,165,15c25.89,0,50.24,6.56,71.5,18.1,17.53,9.53,32.96,22.45,45.39,37.88,20.72,25.72,33.12,58.42,33.12,94.02"/>
      <circle class="cls-4" cx="315.77" cy="165.07" r="5"/>
      <circle class="cls-1" cx="165.08" cy="164.79" r="150"/>
    </g>
  </g>
</svg>